# xmcd
#
# Track frame offsets: 
#        150
#        13035
#        26624
#        40287
#        51562
#        65349
#        76396
#        90361
#        103156
#        115530
#        127565
#        143856
#        155901
#        165785
#        179438
#        189864
#        207512
#
# Disc length: 2896 seconds
#
# Revision: 0
# Processed by: cddbd v1.5.2PL0 Copyright (c) Steve Scherf et al.
# Submitted via: ExactAudioCopy v0.95b4
#
DISCID=d90b4e11
DTITLE=Various Artist - The Best Blues ...Ever!
DYEAR=2012
DGENRE=Blues
TTITLE0=Muddy Waters - Got My Mojo Working
TTITLE1=Robert Johnson - Sweet Home Chicago
TTITLE2=T-Bone Walker - Call It Stormy Monday But Tuesday Is Just As B
TTITLE2=ad
TTITLE3=Sonny Boy Williamson - Bring It On Home
TTITLE4=Slim Harpo - I'm A King Bee
TTITLE5=Fats Domino - Ain't That A Shame
TTITLE6=Etta James - I Just Want To Make Love To You
TTITLE7=Howlin Wolf - Killing Floor
TTITLE8=Canned Heat and John Lee Hooker - Bottle Up And Go
TTITLE9=Elvis Presley - Milkcow Blues Boogie
TTITLE10=Willie Dixon - The Little Red Rooster
TTITLE11=Ray Charles - Mess Around
TTITLE12=James Brown and The Famous Flames - Messing With The Blues
TTITLE13=Koko Taylor - Wang Dang Doodle
TTITLE14=Buddy Guy - First Time I Met The Blues
TTITLE15=Ike and Tina Turner - I've Been Loving You Too Long
TTITLE16=Elvis Presley - Heartbreak Hotel
EXTD=
EXTT0=
EXTT1=
EXTT2=
EXTT3=
EXTT4=
EXTT5=
EXTT6=
EXTT7=
EXTT8=
EXTT9=
EXTT10=
EXTT11=
EXTT12=
EXTT13=
EXTT14=
EXTT15=
EXTT16=
PLAYORDER=
